<mxfile host="Electron" modified="2025-09-16T11:14:48.667Z" agent="Mozilla/5.0 (Windows NT 10.0; Win64; x64) AppleWebKit/537.36 (KHTML, like Gecko) draw.io/23.1.5 Chrome/120.0.6099.109 Electron/28.1.0 Safari/537.36" etag="0iSkKW90zi5kaUNifGLh" version="23.1.5" type="device">
  <diagram name="Page-1" id="5-f98xhsUxC-40vi89wo">
    <mxGraphModel dx="1050" dy="1721" grid="1" gridSize="10" guides="1" tooltips="1" connect="1" arrows="1" fold="1" page="1" pageScale="1" pageWidth="850" pageHeight="1100" math="0" shadow="0">
      <root>
        <mxCell id="0" />
        <mxCell id="1" parent="0" />
        <mxCell id="x1-sKVXxHGu7q3ikw4-5-1" value="" style="ellipse;html=1;shape=startState;fillColor=#000000;strokeColor=#ff0000;" vertex="1" parent="1">
          <mxGeometry x="70" y="-25" width="30" height="30" as="geometry" />
        </mxCell>
        <mxCell id="x1-sKVXxHGu7q3ikw4-5-2" value="" style="edgeStyle=orthogonalEdgeStyle;html=1;verticalAlign=bottom;endArrow=open;endSize=8;strokeColor=#ff0000;rounded=0;" edge="1" source="x1-sKVXxHGu7q3ikw4-5-1" parent="1" target="x1-sKVXxHGu7q3ikw4-5-3">
          <mxGeometry relative="1" as="geometry">
            <mxPoint x="170" y="-10" as="targetPoint" />
          </mxGeometry>
        </mxCell>
        <mxCell id="x1-sKVXxHGu7q3ikw4-5-6" value="" style="edgeStyle=orthogonalEdgeStyle;rounded=0;orthogonalLoop=1;jettySize=auto;html=1;" edge="1" parent="1" source="x1-sKVXxHGu7q3ikw4-5-3" target="x1-sKVXxHGu7q3ikw4-5-5">
          <mxGeometry relative="1" as="geometry" />
        </mxCell>
        <mxCell id="x1-sKVXxHGu7q3ikw4-5-3" value="Nhan tien" style="rounded=1;whiteSpace=wrap;html=1;arcSize=40;fontColor=#000000;fillColor=#ffffc0;strokeColor=#ff0000;" vertex="1" parent="1">
          <mxGeometry x="170" y="-30" width="120" height="40" as="geometry" />
        </mxCell>
        <mxCell id="x1-sKVXxHGu7q3ikw4-5-10" value="" style="edgeStyle=orthogonalEdgeStyle;rounded=0;orthogonalLoop=1;jettySize=auto;html=1;entryX=0.5;entryY=0;entryDx=0;entryDy=0;" edge="1" parent="1" source="x1-sKVXxHGu7q3ikw4-5-5" target="x1-sKVXxHGu7q3ikw4-5-20">
          <mxGeometry relative="1" as="geometry" />
        </mxCell>
        <mxCell id="x1-sKVXxHGu7q3ikw4-5-5" value="Nhan thong tin san pham" style="rounded=1;whiteSpace=wrap;html=1;arcSize=40;fontColor=#000000;fillColor=#ffffc0;strokeColor=#ff0000;" vertex="1" parent="1">
          <mxGeometry x="370" y="-30" width="120" height="40" as="geometry" />
        </mxCell>
        <mxCell id="x1-sKVXxHGu7q3ikw4-5-11" style="edgeStyle=orthogonalEdgeStyle;rounded=0;orthogonalLoop=1;jettySize=auto;html=1;exitX=0;exitY=0.5;exitDx=0;exitDy=0;" edge="1" parent="1" source="x1-sKVXxHGu7q3ikw4-5-7" target="x1-sKVXxHGu7q3ikw4-5-18">
          <mxGeometry relative="1" as="geometry">
            <mxPoint x="310" y="140" as="targetPoint" />
          </mxGeometry>
        </mxCell>
        <mxCell id="x1-sKVXxHGu7q3ikw4-5-12" value="[else]" style="edgeLabel;html=1;align=center;verticalAlign=middle;resizable=0;points=[];" vertex="1" connectable="0" parent="x1-sKVXxHGu7q3ikw4-5-11">
          <mxGeometry x="0.0731" y="1" relative="1" as="geometry">
            <mxPoint as="offset" />
          </mxGeometry>
        </mxCell>
        <mxCell id="x1-sKVXxHGu7q3ikw4-5-7" value="" style="rhombus;whiteSpace=wrap;html=1;fontColor=#000000;fillColor=#ffffc0;strokeColor=#ff0000;" vertex="1" parent="1">
          <mxGeometry x="390" y="120" width="80" height="40" as="geometry" />
        </mxCell>
        <mxCell id="x1-sKVXxHGu7q3ikw4-5-8" value="[input&amp;gt;price]" style="edgeStyle=orthogonalEdgeStyle;html=1;align=left;verticalAlign=bottom;endArrow=open;endSize=8;strokeColor=#ff0000;rounded=0;" edge="1" source="x1-sKVXxHGu7q3ikw4-5-7" parent="1" target="x1-sKVXxHGu7q3ikw4-5-13">
          <mxGeometry x="-1" relative="1" as="geometry">
            <mxPoint x="570" y="140" as="targetPoint" />
          </mxGeometry>
        </mxCell>
        <mxCell id="x1-sKVXxHGu7q3ikw4-5-9" value="[input=price]" style="edgeStyle=orthogonalEdgeStyle;html=1;align=left;verticalAlign=top;endArrow=open;endSize=8;strokeColor=#ff0000;rounded=0;" edge="1" source="x1-sKVXxHGu7q3ikw4-5-7" parent="1" target="x1-sKVXxHGu7q3ikw4-5-15">
          <mxGeometry x="-1" relative="1" as="geometry">
            <mxPoint x="430" y="220" as="targetPoint" />
          </mxGeometry>
        </mxCell>
        <mxCell id="x1-sKVXxHGu7q3ikw4-5-13" value="Tinh so tien du" style="rounded=1;whiteSpace=wrap;html=1;arcSize=40;fontColor=#000000;fillColor=#ffffc0;strokeColor=#ff0000;" vertex="1" parent="1">
          <mxGeometry x="570" y="120" width="120" height="40" as="geometry" />
        </mxCell>
        <mxCell id="x1-sKVXxHGu7q3ikw4-5-14" value="" style="edgeStyle=orthogonalEdgeStyle;html=1;verticalAlign=bottom;endArrow=open;endSize=8;strokeColor=#ff0000;rounded=0;" edge="1" source="x1-sKVXxHGu7q3ikw4-5-13" parent="1" target="x1-sKVXxHGu7q3ikw4-5-15">
          <mxGeometry relative="1" as="geometry">
            <mxPoint x="630" y="220" as="targetPoint" />
            <Array as="points">
              <mxPoint x="630" y="219" />
            </Array>
          </mxGeometry>
        </mxCell>
        <mxCell id="x1-sKVXxHGu7q3ikw4-5-33" value="" style="edgeStyle=orthogonalEdgeStyle;rounded=0;orthogonalLoop=1;jettySize=auto;html=1;" edge="1" parent="1" source="x1-sKVXxHGu7q3ikw4-5-15" target="x1-sKVXxHGu7q3ikw4-5-32">
          <mxGeometry relative="1" as="geometry" />
        </mxCell>
        <mxCell id="x1-sKVXxHGu7q3ikw4-5-15" value="" style="rhombus;whiteSpace=wrap;html=1;fontColor=#000000;fillColor=#ffffc0;strokeColor=#ff0000;" vertex="1" parent="1">
          <mxGeometry x="390" y="200" width="80" height="40" as="geometry" />
        </mxCell>
        <mxCell id="x1-sKVXxHGu7q3ikw4-5-18" value="Thong bao khong du tien" style="rounded=1;whiteSpace=wrap;html=1;arcSize=40;fontColor=#000000;fillColor=#ffffc0;strokeColor=#ff0000;" vertex="1" parent="1">
          <mxGeometry x="190" y="130" width="120" height="40" as="geometry" />
        </mxCell>
        <mxCell id="x1-sKVXxHGu7q3ikw4-5-19" value="" style="edgeStyle=orthogonalEdgeStyle;html=1;verticalAlign=bottom;endArrow=open;endSize=8;strokeColor=#ff0000;rounded=0;" edge="1" source="x1-sKVXxHGu7q3ikw4-5-18" parent="1" target="x1-sKVXxHGu7q3ikw4-5-22">
          <mxGeometry relative="1" as="geometry">
            <mxPoint x="250" y="230" as="targetPoint" />
          </mxGeometry>
        </mxCell>
        <mxCell id="x1-sKVXxHGu7q3ikw4-5-21" value="" style="edgeStyle=orthogonalEdgeStyle;rounded=0;orthogonalLoop=1;jettySize=auto;html=1;" edge="1" parent="1" source="x1-sKVXxHGu7q3ikw4-5-20" target="x1-sKVXxHGu7q3ikw4-5-7">
          <mxGeometry relative="1" as="geometry" />
        </mxCell>
        <mxCell id="x1-sKVXxHGu7q3ikw4-5-20" value="" style="rhombus;whiteSpace=wrap;html=1;fontColor=#000000;fillColor=#ffffc0;strokeColor=#ff0000;" vertex="1" parent="1">
          <mxGeometry x="390" y="40" width="80" height="40" as="geometry" />
        </mxCell>
        <mxCell id="x1-sKVXxHGu7q3ikw4-5-24" style="edgeStyle=orthogonalEdgeStyle;rounded=0;orthogonalLoop=1;jettySize=auto;html=1;exitX=0.5;exitY=1;exitDx=0;exitDy=0;entryX=0;entryY=0.5;entryDx=0;entryDy=0;" edge="1" parent="1" source="x1-sKVXxHGu7q3ikw4-5-22" target="x1-sKVXxHGu7q3ikw4-5-23">
          <mxGeometry relative="1" as="geometry" />
        </mxCell>
        <mxCell id="x1-sKVXxHGu7q3ikw4-5-25" value="[Lay lai tien]" style="edgeLabel;html=1;align=center;verticalAlign=middle;resizable=0;points=[];" vertex="1" connectable="0" parent="x1-sKVXxHGu7q3ikw4-5-24">
          <mxGeometry x="-0.3498" y="-2" relative="1" as="geometry">
            <mxPoint as="offset" />
          </mxGeometry>
        </mxCell>
        <mxCell id="x1-sKVXxHGu7q3ikw4-5-27" style="edgeStyle=orthogonalEdgeStyle;rounded=0;orthogonalLoop=1;jettySize=auto;html=1;exitX=0;exitY=0.5;exitDx=0;exitDy=0;entryX=0;entryY=0.5;entryDx=0;entryDy=0;" edge="1" parent="1" source="x1-sKVXxHGu7q3ikw4-5-22" target="x1-sKVXxHGu7q3ikw4-5-20">
          <mxGeometry relative="1" as="geometry">
            <Array as="points">
              <mxPoint x="120" y="220" />
              <mxPoint x="120" y="60" />
            </Array>
          </mxGeometry>
        </mxCell>
        <mxCell id="x1-sKVXxHGu7q3ikw4-5-28" value="[Nap them tien]" style="edgeLabel;html=1;align=center;verticalAlign=middle;resizable=0;points=[];" vertex="1" connectable="0" parent="x1-sKVXxHGu7q3ikw4-5-27">
          <mxGeometry x="-0.8338" y="-1" relative="1" as="geometry">
            <mxPoint as="offset" />
          </mxGeometry>
        </mxCell>
        <mxCell id="x1-sKVXxHGu7q3ikw4-5-22" value="" style="rhombus;whiteSpace=wrap;html=1;fontColor=#000000;fillColor=#ffffc0;strokeColor=#ff0000;" vertex="1" parent="1">
          <mxGeometry x="210" y="200" width="80" height="40" as="geometry" />
        </mxCell>
        <mxCell id="x1-sKVXxHGu7q3ikw4-5-23" value="" style="ellipse;html=1;shape=endState;fillColor=#000000;strokeColor=#ff0000;" vertex="1" parent="1">
          <mxGeometry x="415" y="540" width="30" height="30" as="geometry" />
        </mxCell>
        <mxCell id="x1-sKVXxHGu7q3ikw4-5-34" value="[Du so luong]" style="edgeStyle=orthogonalEdgeStyle;rounded=0;orthogonalLoop=1;jettySize=auto;html=1;exitX=0.5;exitY=1;exitDx=0;exitDy=0;" edge="1" parent="1" source="x1-sKVXxHGu7q3ikw4-5-32" target="x1-sKVXxHGu7q3ikw4-5-35">
          <mxGeometry relative="1" as="geometry">
            <mxPoint x="430" y="390" as="targetPoint" />
          </mxGeometry>
        </mxCell>
        <mxCell id="x1-sKVXxHGu7q3ikw4-5-39" value="" style="edgeStyle=orthogonalEdgeStyle;rounded=0;orthogonalLoop=1;jettySize=auto;html=1;entryX=0;entryY=0.5;entryDx=0;entryDy=0;" edge="1" parent="1" source="x1-sKVXxHGu7q3ikw4-5-32" target="x1-sKVXxHGu7q3ikw4-5-40">
          <mxGeometry relative="1" as="geometry">
            <mxPoint x="530" y="290" as="targetPoint" />
          </mxGeometry>
        </mxCell>
        <mxCell id="x1-sKVXxHGu7q3ikw4-5-32" value="" style="rhombus;whiteSpace=wrap;html=1;fontColor=#000000;fillColor=#ffffc0;strokeColor=#ff0000;" vertex="1" parent="1">
          <mxGeometry x="390" y="270" width="80" height="40" as="geometry" />
        </mxCell>
        <mxCell id="x1-sKVXxHGu7q3ikw4-5-37" style="edgeStyle=orthogonalEdgeStyle;rounded=0;orthogonalLoop=1;jettySize=auto;html=1;exitX=0.5;exitY=1;exitDx=0;exitDy=0;" edge="1" parent="1" source="x1-sKVXxHGu7q3ikw4-5-35" target="x1-sKVXxHGu7q3ikw4-5-23">
          <mxGeometry relative="1" as="geometry" />
        </mxCell>
        <mxCell id="x1-sKVXxHGu7q3ikw4-5-35" value="Cap nhat lai so luong" style="rounded=1;whiteSpace=wrap;html=1;arcSize=40;fontColor=#000000;fillColor=#ffffc0;strokeColor=#ff0000;" vertex="1" parent="1">
          <mxGeometry x="370" y="380" width="120" height="40" as="geometry" />
        </mxCell>
        <mxCell id="x1-sKVXxHGu7q3ikw4-5-42" value="" style="edgeStyle=orthogonalEdgeStyle;rounded=0;orthogonalLoop=1;jettySize=auto;html=1;" edge="1" parent="1" source="x1-sKVXxHGu7q3ikw4-5-40" target="x1-sKVXxHGu7q3ikw4-5-41">
          <mxGeometry relative="1" as="geometry" />
        </mxCell>
        <mxCell id="x1-sKVXxHGu7q3ikw4-5-40" value="Thong bao &quot;SOLD OUT&quot;" style="rounded=1;whiteSpace=wrap;html=1;arcSize=40;fontColor=#000000;fillColor=#ffffc0;strokeColor=#ff0000;" vertex="1" parent="1">
          <mxGeometry x="550" y="270" width="120" height="40" as="geometry" />
        </mxCell>
        <mxCell id="x1-sKVXxHGu7q3ikw4-5-46" value="" style="edgeStyle=orthogonalEdgeStyle;rounded=0;orthogonalLoop=1;jettySize=auto;html=1;" edge="1" parent="1" source="x1-sKVXxHGu7q3ikw4-5-41" target="x1-sKVXxHGu7q3ikw4-5-45">
          <mxGeometry relative="1" as="geometry" />
        </mxCell>
        <mxCell id="x1-sKVXxHGu7q3ikw4-5-41" value="Liet ke cac san pham goi y" style="whiteSpace=wrap;html=1;fillColor=#ffffc0;strokeColor=#ff0000;fontColor=#000000;rounded=1;arcSize=40;" vertex="1" parent="1">
          <mxGeometry x="550" y="340" width="120" height="60" as="geometry" />
        </mxCell>
        <mxCell id="x1-sKVXxHGu7q3ikw4-5-47" value="[Lay lai tien]" style="edgeStyle=orthogonalEdgeStyle;rounded=0;orthogonalLoop=1;jettySize=auto;html=1;exitX=0.5;exitY=1;exitDx=0;exitDy=0;entryX=1;entryY=0.5;entryDx=0;entryDy=0;" edge="1" parent="1" source="x1-sKVXxHGu7q3ikw4-5-45" target="x1-sKVXxHGu7q3ikw4-5-23">
          <mxGeometry relative="1" as="geometry" />
        </mxCell>
        <mxCell id="x1-sKVXxHGu7q3ikw4-5-48" value="[Chon san pham khac]" style="edgeStyle=orthogonalEdgeStyle;rounded=0;orthogonalLoop=1;jettySize=auto;html=1;exitX=1;exitY=0.5;exitDx=0;exitDy=0;entryX=1;entryY=0.5;entryDx=0;entryDy=0;" edge="1" parent="1" source="x1-sKVXxHGu7q3ikw4-5-45" target="x1-sKVXxHGu7q3ikw4-5-20">
          <mxGeometry x="-0.0811" relative="1" as="geometry">
            <Array as="points">
              <mxPoint x="750" y="440" />
              <mxPoint x="750" y="60" />
            </Array>
            <mxPoint as="offset" />
          </mxGeometry>
        </mxCell>
        <mxCell id="x1-sKVXxHGu7q3ikw4-5-45" value="" style="rhombus;whiteSpace=wrap;html=1;fontColor=#000000;fillColor=#ffffc0;strokeColor=#ff0000;" vertex="1" parent="1">
          <mxGeometry x="570" y="420" width="80" height="40" as="geometry" />
        </mxCell>
      </root>
    </mxGraphModel>
  </diagram>
</mxfile>
